<?xml version="1.0" standalone="no"?>
<!DOCTYPE svg PUBLIC "-//W3C//DTD SVG 20010904//EN"
 "http://www.w3.org/TR/2001/REC-SVG-20010904/DTD/svg10.dtd">
<svg version="1.0" xmlns="http://www.w3.org/2000/svg"
 width="1024.000000pt" height="1024.000000pt" viewBox="0 0 1024.000000 1024.000000"
 preserveAspectRatio="xMidYMid meet">

<g transform="translate(0.000000,1024.000000) scale(0.100000,-0.100000)"
fill="#000000" stroke="none">
<path d="M4855 9834 c-1175 -75 -2247 -556 -3070 -1379 -693 -693 -1151 -1574
-1315 -2531 -53 -307 -64 -448 -64 -804 0 -356 11 -497 64 -804 163 -951 621
-1834 1305 -2521 1064 -1067 2536 -1559 4030 -1344 1322 190 2517 952 3257
2079 338 513 563 1059 683 1655 313 1553 -166 3141 -1285 4265 -363 365 -753
648 -1210 879 -521 264 -1055 422 -1645 486 -133 15 -622 27 -750 19z m-1645
-1864 c102 -25 207 -74 286 -134 33 -25 411 -397 842 -828 l782 -784 784 782
c431 430 807 800 837 824 125 98 270 150 444 157 238 10 416 -58 580 -222 164
-164 232 -342 222 -580 -6 -138 -26 -214 -90 -340 -39 -77 -66 -106 -861 -903
l-821 -822 811 -813 c867 -868 856 -855 914 -1015 159 -435 -87 -906 -535
-1023 -110 -29 -280 -29 -386 -1 -86 23 -177 66 -259 123 -30 20 -413 396
-850 833 l-795 796 -815 -813 c-845 -842 -850 -847 -988 -903 -178 -71 -407
-71 -585 1 -164 67 -312 201 -390 352 -104 202 -121 411 -51 623 55 166 38
147 918 1028 l811 812 -380 383 c-1350 1358 -1272 1274 -1335 1445 -136 373
25 784 377 963 152 77 360 100 533 59z"/>
</g>
</svg>
