<?xml version="1.0" encoding="UTF-8"?>
<svg id="Layer_2" data-name="Layer 2" xmlns="http://www.w3.org/2000/svg" viewBox="0 0 1183.16 1333.14">
  <defs>
    <style>
      .cls-1 {
        opacity: .57;
        stroke: #ffc200;
        stroke-width: 7px;
      }

      .cls-1, .cls-2, .cls-3 {
        fill: #231f20;
        stroke-miterlimit: 10;
      }

      .cls-2 {
        stroke-width: 21px;
      }

      .cls-2, .cls-3 {
        stroke: #f7941d;
      }

      .cls-4 {
        fill: #fbb040;
      }

      .cls-5 {
        fill: #f7941d;
      }

      .cls-3 {
        stroke-width: 12px;
      }
    </style>
  </defs>
  <g id="Layer_1-2" data-name="Layer 1">
    <path class="cls-2" d="m1100.8,599.16c-2.25-39.35-5.92-103.73,2.44-179.48,6.58-59.59,22.91-147.09,67.52-248.64L1019.45,10.5H163.71L12.41,171.04c44.61,101.55,60.94,189.05,67.52,248.64,8.36,75.75,4.69,140.13,2.44,179.48-4.67,81.76-17.19,160.92-20.34,180.3-11.59,71.49-18.27,86.5-14.64,123.5,6.19,63.08,34.42,109.1,47.18,127.61,38.35,55.64,86.78,80.22,151.3,111.97,91.66,45.1,121.91,37.17,200.92,75.74,66.97,32.7,115.05,72.48,144.79,100.44,29.74-27.96,77.82-67.74,144.79-100.44,79.01-38.58,109.26-30.64,200.92-75.74,64.52-31.74,112.95-56.33,151.3-111.97,12.76-18.52,40.99-64.53,47.18-127.61,3.63-36.99-3.05-52-14.64-123.5-3.14-19.39-15.67-98.54-20.34-180.3Z"/>
    <g>
      <path class="cls-3" d="m227.15,950.75c-24.56-28.75-46.3-61.3-64.49-97.65,23.2,10.31,46.33,17.95,69.07,23.17,5.03-23.78,11.86-46.63,20.31-68.27,20.79,41.55,47.47,76.81,78.25,105.78-11.41,12.23-22.82,24.45-34.24,36.68"/>
      <path class="cls-3" d="m265.04,917.91c22.48.59,44.31-.86,65.25-4.12"/>
      <path class="cls-3" d="m946.01,950.75c24.56-28.75,46.3-61.3,64.49-97.65-23.2,10.31-46.33,17.95-69.07,23.17-5.03-23.78-11.86-46.63-20.31-68.27-20.79,41.55-47.47,76.81-78.25,105.78,11.41,12.23,22.82,24.45,34.24,36.68"/>
      <path class="cls-3" d="m908.12,917.91c-22.48.59-44.31-.86-65.25-4.12"/>
      <path class="cls-3" d="m984.08,983.74c-25.38-22-50.75-43.99-76.13-65.99-166.22,194.61-476.51,194.62-642.73,0-25.26,21.89-50.52,43.79-75.78,65.68,205.27,240.61,588.91,240.92,794.64.3Z"/>
    </g>
    <g>
      <path class="cls-5" d="m446.41,101.7c-6.35,2.56-12.89,4.74-19.02,7.74-22.16,10.88-42.93,23.97-62.46,38.96-.85.66-1.77,1.23-3.53,2.46,1.83-6.83,3.9-12.04,9.25-15.91,40.61-29.4,84.57-51.52,134.85-59.94,34.91-5.84,69.8-3.95,104.64,1.76,33.48,5.48,66.45,13.38,97.74,26.34,14.3,5.92,27.88,3.44,41.89,3.71,2.76.05,5.53,0,8.54.61-4.02,4.03-6.82,9.72-14.82,8.04.75,1.72,1.23,2.85,1.71,3.95-3.96,4.19-7.9,6.71-13.9,2.67-7.45-5.02-15.71-4.56-24.3-2.9-21.8,4.21-43.07,9.61-62.5,20.71-2.5,1.43-6.52.27-9.99-.56,19.57-15.84,42.97-22.27,68.12-27.96-2.3-1.27-3.54-2.2-4.93-2.67-38.9-13.12-78.41-23.56-119.48-26.9-1.71-.14-4.68.97-5.16,2.22-7.33,19.2-20.38,34.16-35.35,47.77-1.65,1.5-3.31,2.99-4.92,4.52-.22.21-.21.65-.46,1.47,6.23-.83,12.28-2.59,18.21-2.24,18.11,1.07,36.26,2.28,54.24,4.66,27.75,3.68,55.52,6.98,83.45,5.03,29.49-2.06,56.32-11.52,78.91-30.91,1.1-.94,2.35-1.7,4.27-1.89-6.29,17-17.24,30.84-29.8,44.98,5.28-1.08,9.45-2.9,13.46-2.56,10.78.89,21.58,2.23,32.21,4.26,20.46,3.91,40.92,4.81,61.53,2.31.84-.1,1.74.14,4.39.4-13.49,11.01-28.9,14.07-43.59,20.3,5.82,1.74,11.77,3.15,17.44,5.3,13.4,5.08,23.8,14.73,34.99,23.17,10.15,7.67,20.54,15.03,30.77,22.61,1.05.78,1.67,2.14,2.49,3.24-1.43.53-2.94,1.65-4.27,1.46-2.17-.3-4.21-1.53-6.35-2.21-3.82-1.22-7.67-2.32-11.74-2.74,14.13,8.91,29.3,15.22,45.26,19.81,16.23,4.66,32.78,5.51,49.54,4.23.31.53.62,1.06.93,1.59-1.5,1.44-2.78,3.24-4.53,4.25-15.16,8.75-31.32,14.81-48.4,16.46,12.71,17.63,25.17,35.45,38.21,52.84,11.36,15.16,24.77,28.49,39.95,40.02,1.3.99,2.4,2.25,3.59,3.38-.27.52-.53,1.05-.8,1.57-6.77-2.99-13.53-5.99-21.34-9.44,6.04,15.09,11.77,29.4,17.5,43.72l-1.21,1.16c-3.28-1.67-6.57-3.35-9.85-5.02-.54.38-1.08.77-1.62,1.15,2.64,4.2,5.61,8.24,7.88,12.63,12.06,23.24,12.95,48.44,13.84,73.7,1.21,33.93-1.93,67.6-4.13,101.36-1.07,16.45.69,33.11,1.2,50.72-2.24-4.04-4.54-7.61-6.25-11.43-1.8-4.04-3.04-8.32-5.53-12.47-.11,5.3.05,10.62-.36,15.89-4.11,52.01-20.77,98.96-54.46,139.76-26.68,32.31-53.92,63.96-83.66,93.65-12.13,12.11-20.6,27.92-30.11,42.45-10.7,16.35-18.71,34.03-23.29,53.1-1.29,5.36-1.95,10.87-2.95,16.3-.22,1.19-.68,2.33-1.6,5.4-1.96-3.41-3.46-5.35-4.25-7.52-5.7-15.6-4.54-31.33-.98-47.05.48-2.13,1.24-4.2,2.11-7.12-1.47.56-2.26.63-2.67,1.06-23.27,24.24-53.12,36.68-85.14,44.37-47.97,11.51-96.82,11.61-145.83,7.34-6.6-.58-13.15-1.9-20.06-4.04,14.48-4.54,28.96-9.09,43.43-13.63-.05-.53-.09-1.06-.14-1.59-68.58,9.26-126.44-18.99-183-51.7-4.26-2.46-8.11-5.63-11.66-9.64,19.43,8.36,39.52,13.06,60.56,14.59-46.93-22.04-83.46-56.67-117.69-94.18,18.49,11.01,34.59,25.99,55.99,32.39-35.14-23.15-56.61-55.7-68.54-95.46.9.36,1.68.43,2.06.86,25.14,27.66,57.42,43.73,92.61,53.97,26.99,7.86,54.66,13.43,82.03,19.96,1.97.47,4.05.45,7.88.83-18.76-15.28-25.95-35.11-31.36-56.99,40.49,45.27,91.44,64.2,150.53,63.23.21-.67.41-1.34.62-2.01-13.19-3.11-26.39-6.22-40.69-9.59,13.14-8.04,25.83-13.21,40.13-14.39,27.78-2.29,55.39-1.32,82.82,4.16.66.13,1.35.09,3.46.2-11.05-8.97-22.17-16.3-26.78-29.17-.35-.97-.34-2.06-.67-4.29,2.58.77,4.52,1.07,6.18,1.9,26.57,13.27,54.55,22.72,83.71,27.62,12.15,2.04,23.85-3.51,31.25-13.91,12.58-17.67,15.01-37.82,11.93-58.82-.91-6.24-2.96-12.32-4.49-18.47-.55.13-1.11.25-1.66.38.94,7.23,2.7,14.49,2.61,21.7-.13,10.27-.48,20.78-2.77,30.72-4.07,17.67-19.37,27.21-37.67,23.97-8.78-1.55-17.41-4.58-25.79-7.78-29.51-11.26-59.03-22.6-90.33-27.78-16.41-2.72-33.08-3.97-49.68-5.31-14.04-1.13-27.51-4.29-40.03-10.53-4.19-2.08-7.35-1.36-11.16-.35-2.82.75-5.81.85-8.73,1.24.25-2.9.5-5.8.7-8.18-3.9-3.08-7.96-6.79-12.55-9.66-2.11-1.32-5.28-1.34-7.96-1.36-4.85-.04-6.31-1.63-3.78-6.03,2.38-4.13,3.08-8.43-.51-12.28-1.4-1.5-3.52-2.38-5.36-3.46-1.38-.8-3.6-1.16-4.06-2.26-.47-1.15.23-3.58,1.27-4.38,7.08-5.45,10.24-13.23,14.34-20.77,6.2-11.41,17.94-13.58,30.13-12.83,12.69.78,22.54,8.71,33.52,13.84,20.69,9.67,41.2,19.87,62.39,28.32,17.14,6.83,35.53,8.5,53.62,7.42-8.05-7.83-16.77-15.11-24.05-23.6-26.87-31.3-35.93-67.37-29.17-107.47,2.55-15.15,7.68-29.27,15.45-42.48,12.99-22.11,32.72-34.83,58.16-37.87,28.46-3.39,55.08,3.03,79.51,18.49,12.98,8.22,21.39,19.59,26.15,33.83.81,2.43,1.67,4.84,3.88,7.22.02-1.79.19-3.6.03-5.37-2.62-29.07-19.75-46.92-46.27-56.94-10.74-4.06-22-6.73-33.2-10.09,37.49,1.16,75.1,1.25,106.72,27.58-1.99-2.67-3.78-5.53-6.02-7.98-12.61-13.78-29.02-21.1-46.67-25.72-27.53-7.22-55.31-6.96-83.13-2.15-2.27.39-5.07.54-7.03-.4-14.08-6.73-29.11-8.48-44.36-9.05-12.57-.47-24.97-1.74-37.84-6.12,1.9-2.1,3.25-3.77,4.78-5.25,31.55-30.38,68.87-45.62,113.59-40.79,11.36,1.23,22.82,2.65,33.83,5.55,6.81,1.79,12.87,6.47,19.21,9.97,1.51.83,2.78,2.12,4.95,3.81-3.14-21.73-9.52-41.29-19.02-59.94.37-.32.74-.64,1.11-.97,6.9,6.23,13.79,12.45,20.64,18.64.24-6.53-9.41-24.14-26.87-49.08,6.87-1.43,14.32-1.93,20.81-4.63,6.43-2.68,11.89-7.58,16.93-12.54-8.43.32-16.86.64-25.29.95,13.49-12.07,27.54-22.76,32.27-42.56-3.02,1.45-4.64,2.6-6.44,3.04-7.94,1.92-15.84,4.59-23.91,5.26-26.14,2.19-52.27,1.35-77.26-7.77-29.65-10.82-57.45-25.44-80.98-46.54-7.69-6.89-12.44-16.98-18.52-25.62-.83-1.18-1.6-2.39-3.67-3.47,0,1.76-.53,3.71.06,5.24,9.88,25.34,21.36,49.53,44.51,66.44,21.13,15.44,44.69,25.13,69.83,31.53,16.23,4.13,32.65,6.86,49.85,6.92-6.15,2.57-12.32,5.1-18.45,7.72-7,2.99-7.48,4.13-3.02,10.51,3.71,5.31,8.01,10.22,13.14,16.68-5.32-1.6-9.2-2.76-14.14-4.24,6.53,17.24,18.53,30.67,22.48,48.48-2.12-.43-3.37-.53-4.5-.94-25.56-9.31-50.56-6.77-75.26,2.69-28.42,10.89-52.26,27.69-69.67,52.67-2.73,3.92-6.32,5.97-10.63,7.99-8.76,4.1-16.93,9.41-25.44,14.05-21.79,11.89-45.3,19.03-69.48,24.58-9.99,2.29-19.81,5.54-29.42,9.1-20.75,7.69-32.29,28.7-31.13,50.25.37,6.93,2.32,13.34,5.16,19.94,3.53,8.23,5.07,17.52,6.09,26.49,1.22,10.81,1.11,21.76,1.28,32.65.04,2.7-.56,5.65-1.72,8.07-2.91,6.04-4.18,11.97-2.45,18.75.6,2.34-.94,7.28-2.32,7.59-3.09.69-6.69-.78-10.03-1.95-3.25.63-5.9,2.33-5.32,6.58.14,1.04-.19,2.26-.65,3.24-1.47,3.11-3.11,6.14-4.68,9.2-2.79-2.27-5.81-4.33-8.3-6.88-2.13-2.19-3.66-4.95-5.46-7.46-.59.22-1.19.43-1.78.65-.43,3.22-.61,6.51-1.39,9.64-.39,1.55-1.65,3.43-3.01,3.98-.88.36-3.1-1.11-3.98-2.3-6.96-9.44-14.05-18.81-20.37-28.66-1.89-2.95-2.74-7.68-1.86-11.01,5.67-21.59,4.77-43.04.9-64.93-2.76-15.59-3.82-31.57-4.23-47.4-.35-13.34,4.15-24.6,16.21-33.23,28.43-20.33,56.1-41.69,83.82-62.96,11.12-8.53,20-19.18,27.03-32.43-4.43-1.9-8.54-3.66-14.05-6.03,2.12,4.13,3.77,6.59,4.69,9.28,1.45,4.26-.23,6.45-4.81,6.22-6.69-.35-13.37-1.08-21-1.72,3.44,3.59,6.42,6.07,8.54,9.13,1.76,2.53,2.7,4.99-2.62,5.78-5.82.86-11.35,3.57-16.96,5.61-37.28,13.55-64.39,38.78-86.48,70.75-19.38,28.04-30.56,58.5-33.23,92.23-.67,8.45-.24,17.02-1.27,25.42-1.51,12.34-6.4,23.1-17.49,30.18-4.67,2.98-9.4,5.03-15.3,3.95-1.41-.26-3.65,1.65-4.85,3.09-9.31,11.16-19.39,20.91-35.03,22.83-9.31,1.14-12.36-.22-14.31-9.6-4.9-23.61-9.39-47.29-14.06-70.95-2.19-11.09-4.52-22.15-6.56-33.27-1.08-5.91-3.21-11.09-6.69-16.21-12.72-18.71-20.85-39.47-21.55-61.9-.91-28.85-10.32-55.16-21.26-81.36-4.86-11.66-8.7-23.73-12.74-35.71-.69-2.06-.03-4.55,0-6.84,2.43.43,5.17.3,7.23,1.41,7.54,4.06,14.86,8.54,22.83,13.19-.01-6.87.33-13.82-.11-20.73-1.44-22.84-10.78-43-22.63-62.29-1.07-1.74-.96-4.18-1.39-6.3,2.38.5,5.36.28,7.05,1.63,6.77,5.42,13.14,11.33,19.81,17.19-5.03-36.57,5.52-70.01,24.75-102.72-3.14,16.79-1.88,32.09,2.18,47.82,5.61-14.05,10.45-27.69,16.47-40.79,5.96-12.99,12.77-25.69,25.88-36-1.4,19.49-4.77,37.5.41,55.37,5.39-51.89,27.5-93.72,73.19-121.68-8.55,19.06-19.92,37.06-19.32,59.92,4.92-7.45,9.15-14.25,13.77-20.78,12.16-17.2,28.93-29.08,47.21-39.13,10.29-5.66,20.71-11.08,31.03-16.69,1.57-.86,2.89-2.16,4.33-3.26,1.92.21,3.83.41,7.33.78-14.91,16.35-28,32.31-35.66,51.86.89-.12,1.38-.55,1.81-1.04,14.82-16.87,33.8-26.58,55.34-32.9,22.74-6.67,45.11-14.6,67.45-22.5,9.44-3.34,18.43-7.96,25.52-16.35-1.68-.33-2.71-.67-3.75-.73-30.8-1.7-61.06,1.33-90.45,10.4-9.38,2.89-18.34,7.07-27.49,10.66Zm-30.4,247.86c-6.73-30.24,6.25-55.61,19.39-80.94-.4-.42-.8-.84-1.19-1.27-8.21,5.61-16.42,11.22-25,17.09,2.41-12.87,9.83-22.58,17.42-32.56-9.72,6.24-19.16,12.75-27.6,20.34-8.59,7.73-13.36,18.16-16.97,29.21-2.34-12.39-3.07-24.96-10.74-35.7-4.82,17.51-7.82,35.33-13.31,52.34-5.44,16.86-13.4,32.91-20.25,49.32,13.05-11.83,26.5-23.14,33.85-40.45,9.15,31.96,13.81,40.03,22.66,41.49-.27-9.15-1.83-18.67-.47-27.75,1.37-9.15,5.64-17.84,8.64-26.74.53.11,1.06.22,1.59.33.91,12.67,3.06,24.95,11.99,35.28Zm390.14,538.58c1.01-.14,1.49-.07,1.63-.26.91-1.17,1.79-2.35,2.59-3.59,21.34-33.35,46.27-63.76,75.51-90.69,23.53-21.68,39.58-47.9,46.9-78.96,2.4-10.18,3.24-20.77,4.19-31.22.52-5.68-1.07-7.53-4.99-8.87-.18.49-.49.97-.53,1.48-3.12,41.6-18.31,77.61-49.14,106.67-12.54,11.81-25.17,23.67-36.41,36.64-16.75,19.33-27.55,42.42-38.64,65.21-.5,1.03-.69,2.21-1.1,3.6ZM239.17,314.75c3.19,41.23,6.32,81.54,9.44,121.85,6.63-30.14,7.81-60.57,6.68-91.5,21.38,14.4,34.41,35.14,46.09,56.94-3.02-25.38-16.2-45.56-33.95-65.11,6.94,3.03,12.21,5.33,17.48,7.63.23-.49.46-.98.7-1.46-12.4-14.04-30.17-19.46-46.43-28.34Zm477.86-157.74c-1.5.57-3.04,1.08-4.5,1.73-12.6,5.67-25.82,9.06-39.72,8.6-15.73-.52-31.47-1.42-47.13-2.95-19.16-1.87-38.45-4.19-56.65,3.29-14.07,5.79-27.46,13.22-40.88,20.42-2.07,1.11-2.65,4.9-3.92,7.45,2.73-.14,5.79.45,8.13-.56,6.69-2.85,13.07-6.37,19.6-9.58,20.05-9.86,40.94-14.34,63.63-11.24,15,2.05,30.24,3.06,45.38,3.18,21.01.16,40.13-6.14,56.06-20.36Zm255.54,422c.55-.13,1.1-.27,1.64-.4-1.07-4.8-2.35-9.56-3.16-14.4-3.69-21.9-1.61-43.52,2.83-65.04,3.34-16.19,5.71-32.46,1.51-48.95-5.14-20.22-23.73-35.43-42.83-35.04-3.76.08-7.44.42-9.14,5.4,3.59.66,6.82,1.36,10.09,1.85,17.16,2.55,31.1,14.82,33.39,31.72,1.42,10.47,1.01,21.41-.26,31.93-1.97,16.28-7.29,32.12-5.94,48.85,1.25,15.42,4.57,30.28,11.87,44.08Zm-364.66,379.01c-.08.39-.15.78-.23,1.17,1.42.36,2.81.91,4.25,1.05,38.33,3.76,75.3-.62,109.78-18.11,7.38-3.74,14.07-9.02,20.45-14.32,2.72-2.26,3.86-6.39,5.71-9.67-.72-.71-1.44-1.43-2.16-2.14-4.85,2.34-9.78,4.51-14.52,7.06-3.93,2.11-7.47,4.94-11.44,6.95-26.96,13.59-56.13,20.11-85.78,24.93-8.62,1.4-17.37,2.08-26.06,3.09Zm-163.93-39.63l-.5,1.32c3.9,1.49,7.7,3.32,11.71,4.42,23.76,6.55,48.07,9.5,72.55,11.77,18.92,1.76,37.4.51,55.64-4.29,3.43-.9,7.59-2,6.81-6.6-.82-4.88-5.14-3.99-8.65-3.61-10.6,1.15-21.16,2.85-31.79,3.54-27.09,1.76-54.22,3.19-81.25-1.36-8.23-1.38-16.35-3.44-24.51-5.19Zm-30.77-33.43c-.41.51-.82,1.01-1.23,1.52,5.25,3.96,10.17,8.49,15.82,11.77,20.03,11.64,41.94,12.94,64.27,10.56,5.15-.55,10.29-1.85,15.16-3.57,1.66-.59,2.46-3.51,3.65-5.37-1.99-.92-4-2.64-5.97-2.61-7.66.14-15.3,1.22-22.96,1.25-16.63.06-33.43.89-49.48-4.86-6.61-2.36-12.85-5.76-19.25-8.69Zm111.87-756.91c-.13-.49-.27-.99-.4-1.48-1.55.12-3.14.05-4.63.38-6.38,1.43-12.78,2.8-19.07,4.52-21.21,5.81-41.58,13.46-58.82,27.43-2.7,2.19-5.26,4.74-7.15,7.59-.8,1.21-.33,4.29.75,5.35.96.94,3.88.88,5.35.14,2.78-1.41,5.07-3.73,7.69-5.49,22.05-14.74,46.26-25.41,70.58-35.85,1.92-.82,3.81-1.73,5.71-2.59Zm-105.94,8.53c-.24-.3-.48-.6-.73-.9-.93.46-1.97.78-2.77,1.4-14.99,11.53-30.27,22.72-44.77,34.81-6.3,5.25-11.36,12.11-16.22,18.79-2.12,2.92-2.85,7.15-3.17,10.88-.15,1.71,2.2,3.65,3.42,5.49,1.73-1.32,3.94-2.33,5.09-4.03,3.5-5.16,5.81-11.31,9.99-15.78,14.89-15.95,30.36-31.37,45.62-46.99,1.19-1.22,2.36-2.45,3.54-3.67Zm482.6,124.38c.08-.72.17-1.43.25-2.15-.81-.32-1.6-.8-2.43-.92-31.22-4.35-61.05-13.64-90.34-25.01-1.6-.62-3.95.66-5.96,1.06.6,1.92.89,4.04,1.93,5.7.7,1.12,2.42,1.67,3.74,2.36,16.9,8.76,35.21,12.78,53.83,15.32,12.92,1.76,25.99,2.46,38.99,3.64Zm-619.7,238.62c-.37,0-.75.02-1.12.02-3.04,10.16-6.78,20.18-8.83,30.54-.97,4.87-.08,11.15,2.4,15.43,4,6.92,10.01,12.72,16.01,20.01,2.37-12.6-5.4-22.18-5.83-32.99-.43-11.02-1.72-22.01-2.63-33.02Zm146.86,367.59c-20.48-17.38-43.96-31.4-58.9-54.49.52,21.56,39.72,58.04,58.9,54.49ZM822.71,214.11c-17.44-16.23-45.59-23.33-66.84-14.14-1.01.44-2.3.97-2.72,1.82-.81,1.64-1.93,3.89-1.34,5.21.49,1.1,3.51,2.1,4.95,1.67,19.53-5.83,38.6-2.6,57.59,2.93,2.8.81,5.58,1.67,8.37,2.5Zm-540.51,17.7c-1.11.68-1.77.84-1.93,1.21-6.57,16.02-13.54,31.89-19.32,48.19-1.55,4.38.14,10.14,1.23,15.08.33,1.47,3.89,3.4,5.62,3.12,1.5-.25,3.27-3.19,3.59-5.17,2.22-13.63,3.92-27.36,6.14-40.99,1.14-6.99,2.99-13.85,4.66-21.44Zm348.66,594.85c.01.33.03.66.04,1,1.57.26,3.13.63,4.71.77,15.95,1.44,31.55,4.37,46.56,10.22,6.99,2.72,14.09,5.22,21.27,7.37,1.91.57,4.32-.54,6.5-.87-1.04-1.96-1.74-4.23-3.22-5.78-1.34-1.41-3.49-2.12-5.36-2.99-21.16-9.91-43.54-12.03-66.47-10.55-1.36.09-2.69.55-4.03.84Zm106.38-244.71c1.7-5.64-3.75-14.66-10-16.55-5.81-1.76-11.65,2.26-14,9.62-2.05,6.41,1.79,15.3,7.27,16.8,7.45,2.04,14.37-2.04,16.74-9.87Zm-210.56,254.5c.21.74.2,1.18.41,1.37.7.61,1.44,1.2,2.23,1.68,17.2,10.42,35.65,17.43,55.73,19.61,5.54.6,11.21.57,16.76.13,2.17-.17,4.17-2.28,6.24-3.51-2.01-1.23-3.9-2.84-6.08-3.57-2.26-.75-4.8-.73-7.22-.88-22.36-1.4-44.32-4.65-64.94-14.14-.89-.41-1.96-.44-3.14-.69Zm-87.69-154.13c1.02-.25,3.55-.88,6.09-1.51-.81-2.26-1.01-5.08-2.53-6.68-8.27-8.73-12.43-18.88-12.46-30.74,0-1.47-.1-3.01-.56-4.39-.36-1.09-1.35-1.97-2.06-2.95-.93.95-2.44,1.75-2.7,2.86-1.35,5.75-2.65,11.53-3.48,17.37-1.73,12.2,4.2,21.44,17.7,26.05Zm491.54-334.91c.58-.38,1.17-.76,1.75-1.14-4.04-6.56-7.89-13.23-12.16-19.64-8.31-12.47-17.66-24.11-30.94-31.78-2.37-1.37-6.08-.44-9.18-.58,1.47,2.35,2.55,5.11,4.49,6.99,9.51,9.21,19.43,18.01,28.85,27.31,6.05,5.97,11.48,12.54,17.18,18.84Zm-147.89-175.79c-.09-.52-.17-1.03-.26-1.55-2.55.1-5.19-.18-7.65.35-12.93,2.77-25.98,5.19-38.63,8.89-6.26,1.83-11.96,5.87-17.46,9.55-1.51,1.01-1.42,4.35-2.07,6.62,2.32,0,4.95.73,6.9-.1,15.2-6.5,30.21-13.44,45.42-19.91,4.33-1.84,9.15-2.6,13.75-3.85Zm-333.88,459.74c-.81-.02-1.61-.04-2.42-.06-.68,3.29-1.88,6.57-1.94,9.88-.16,9.27,3.36,17.46,9.38,24.45,2.13,2.47,5.39,3.99,8.13,5.95,2.19-3.22,4.59-6.33,6.46-9.72.71-1.3.32-3.26.24-4.91-.18-3.81-2.17-5.96-6.14-5.48-5.05.61-7.8-2.15-9.52-6.18-1.23-2.88-1.88-6-2.78-9.01-.49-1.64-.94-3.28-1.41-4.92Zm117.37,64.16c-6.06-7.35-18.93-10.5-25.72-2.35-3.53,4.23-6.95,8.6-9.98,13.19-3.2,4.84-1.14,9.23,2.51,12.99.79.81,2.4,1.54,3.34,1.29.84-.23,1.61-1.8,1.84-2.9,2.62-12.23,11.36-20.08,23.78-21.28,1.21-.12,2.39-.52,4.23-.94ZM334.13,176.39c-2.22,2.65-4.09,4.04-4.81,5.88-5.41,13.69-10.79,27.4-15.69,41.28-1.11,3.13-.73,6.99-.22,10.39.23,1.54,2.46,2.8,3.78,4.19,1.32-1.27,2.8-2.42,3.88-3.86.61-.81.56-2.11.82-3.19,4.05-17.04,8.1-34.07,12.13-51.11.15-.64.05-1.33.11-3.58Zm414.26,592.55c1.08.71,1.61,1.24,2.25,1.45,12.84,4.12,30.42-5.44,33.09-18.35.45-2.2-1.35-4.87-2.11-7.32-2.09,1.11-4.86,1.72-6.17,3.43-6.68,8.73-13.12,17.56-25.29,19.23-.44.06-.8.68-1.77,1.56Zm201.13-381.34c.57-.26,1.14-.52,1.71-.77-.84-.76-1.72-1.48-2.51-2.28-8.9-8.96-17.43-18.32-26.85-26.71-3.82-3.41-9.46-5-14.48-6.85-1.8-.66-4.22.33-6.98.63,17.09,12.52,33.1,24.25,49.11,35.98Zm-392.04,350.16c1.39-4.64,1.8-8.97,3.89-12.23,2.53-3.93,6.56-6.9,9.79-10.41.89-.97,1.25-2.41,1.85-3.63-.96-.45-1.98-1.37-2.88-1.29-8.25.82-15.94,3.11-20.61,10.48-4.79,7.56.28,16.85,7.95,17.08Zm126.66-396.97c-13.17-3.34-26.68-4.55-40.27-3.54-4.79.36-9.55,1.65-14.17,2.99-1.41.41-2.34,2.4-3.49,3.67,1.51.76,3.09,2.29,4.51,2.16,17.82-1.62,35.62-3.48,53.42-5.28Zm-160.5,2.82c2.04-6.57.32-11.14-4.86-12.87-4.61-1.54-12.19,3.18-13.88,8.66-1.51,4.88,1.41,9.92,6.8,11.71,5.56,1.85,9.88-.86,11.95-7.5Zm-163.02,174.11c.44.09.88.19,1.32.28.39-.92.88-1.81,1.15-2.76,3.12-10.82,6.26-21.63,9.25-32.49,1.01-3.65,3.13-8.44-1.42-10.29-2-.81-6.18,2.61-8.79,4.78-1.62,1.35-2.16,3.96-3.19,6.01,2.09.41,4.19.82,6.43,1.27-1.56,10.88-3.16,22.04-4.77,33.2Zm-19.08-49.49c.43-.19.86-.38,1.29-.57-1.46-9.23-2.9-18.47-4.4-27.7-.27-1.63-.57-3.32-1.25-4.81-1.75-3.86-5.93-4.42-7.64-.67-2.03,4.45-3.05,9.4-4.12,14.22-.22.97,1.05,2.68,2.09,3.35.52.33,2.21-.76,3.12-1.5.87-.71,1.42-1.81,2.43-3.17,2.99,7.35,5.73,14.1,8.48,20.85Zm343.37-103.42c-.46-.78-.61-1.31-.81-1.33-13.69-1.15-27.36-1.43-40.54,2.89-1.82.6-2.83,3.56-4.22,5.42,2.31.56,4.79,1.95,6.89,1.53,11.16-2.23,22.22-4.91,33.31-7.42,1.72-.39,3.46-.71,5.37-1.1Zm-397.76,299.31c-.51.21-1.03.42-1.54.64.93,2.18,1.27,5.3,2.92,6.34,2.91,1.82,8.97-.86,9.86-3.55,1.05-3.19-1.38-9.15-4.38-9.8-5.14-1.12-6.32,2.41-6.86,6.38Z"/>
      <path class="cls-5" d="m475.05,776.21c4.4.05,8.58.04,12.77.15,23.21.57,45.21-2.72,63.92-17.78,3.76-3.03,8.09-4.29,13.86-2.23,15.95,5.69,32.69,7.42,49.54,9.34,16.96,1.93,33.54,7.34,51.55,11.52-12.75,12.99-25.64,22.63-39.85,30.33-5.04,2.73-11.26,3.9-17.1,4.58-12.44,1.45-25.03,1.74-37.45,3.27-5.63.7-11.46,2.45-16.41,5.14-6.65,3.62-13.21,2.9-19.53.84-24.65-8.05-43.98-23.78-60.89-42.75-.3-.34-.19-1.03-.4-2.4Z"/>
      <path class="cls-5" d="m388.52,781.05c-1.4,2.79-2.79,6.44-4.92,9.59-2.53,3.74-5.28,3.58-7.05-.55-2.07-4.84-5.6-7.48-9.76-10.6-10.51-7.89-14.11-19.47-11.06-31.81,3.94-15.93,8.49-31.81,14.27-47.15,6.94-18.43,9.9-37.52,11.21-56.85,1.41-20.74,5.51-40.22,18.96-56.79.57-.71,1.17-1.4,2.27-2.71,3.35,20.24,6.4,39.78,1.85,59.55-.58,2.52-.92,5.12-1.77,7.55-3.2,9.13.13,16.14,6.13,23.29,5.57,6.64,9.77,14.43,14.33,21.85.89,1.45,1.21,3.61.94,5.31-2.12,13.41-4.4,26.8-6.73,40.18-1.81,10.37-5.46,19.86-13.11,27.6-1.44,1.45-1.21,4.4-2.15,6.47-1.31,2.88-2.38,6.64-4.76,7.99-1.61.92-5.28-1.66-8.65-2.9Zm9.88-18.64c-10.31-2.99-12.73-10.59-12.74-19.44,0-2.91.67-5.82.87-8.74.13-1.94-.04-3.9-.1-7.17-6.31,9.36-7.82,24.89-3.87,33.1.87,1.8,2.11,3.56,3.58,4.91,4.83,4.46,7.55,4,12.27-2.66Zm6.06-77.79c-3.72,7.13-1.5,18.31,3.93,22.35,1.8,1.33,5.07,2.14,7.02,1.45,1.93-.68,3.05-3.56,5.32-6.5-11.84-1.29-15.36-8.11-16.28-17.3Z"/>
      <path class="cls-5" d="m381.97,912.6c-13.58-6.52-27.38-12.64-40.71-19.63-42.21-22.15-80.06-49.95-111.55-85.79-41.34-47.07-60.99-102.22-63.23-163.69-1.79-49.11,5.1-97.06,20.96-143.47,6.07-17.75,13.96-34.87,21.92-52.11,2.92,6.41,6.55,11.72,2.8,19.43-12.51,25.72-21.31,52.85-26.8,80.9-11.57,59.18-13.76,118.16,7.23,176.36,14.61,40.51,39.63,73.99,71.74,102.65,29.66,26.47,62.82,47.6,98.55,65.2,7.94,3.91,13.8,11.98,20.62,18.13-.52.67-1.03,1.35-1.55,2.02Z"/>
      <path class="cls-5" d="m843.62,887.83c5.53-11.1,13.67-18.29,24.29-24.01,42.59-22.91,79.62-52.56,105.45-93.66,35.13-55.88,49.21-116.61,37.77-182.44-1.2-6.92-3.16-13.74-5.04-20.53-2.12-7.66-2.25-17.38.15-26.37,7.58,14.65,12.25,29.86,15.22,45.54,7.99,42.21,4.28,83.52-8.5,124.3-23.86,76.11-75.29,128.41-144.83,165.28-8.02,4.25-16.35,7.94-24.53,11.89Z"/>
      <path class="cls-5" d="m638.38,608.84c-5.4-3.81-10.71-7.56-15.97-11.27-20.08,18.36-37.72,53.3-7.33,93.58-8.58-2.82-15.96-4.2-19.97-12.7-13.21-27.96-8.09-58.55,14.65-83.75,1.23-1.36,2.47-2.72,4.03-4.42-4.4-4.9-8.83-9.63-13.02-14.56-16.09-18.89-25.67-40.49-28.08-65.05-1.03-10.42-.96-10.59,10.15-13.48-.58,34.22,13.86,61.85,38.67,85.19,8.31-5.08,16.45-10.04,24.58-15.01.58.43,1.15.87,1.73,1.3-1.72,4.29-2.6,9.26-5.4,12.69-2.78,3.4-7.49,5.26-12.26,8.4,6.94,4.79,13.9,9.31,8.23,19.08Z"/>
      <path class="cls-5" d="m147.57,656.79c-1.41,1.37-3.36,3.26-5.31,5.15-1.86-2.12-4.56-3.94-5.46-6.4-10.46-28.71-11.97-58.7-12.41-88.67-.18-12.25,1.91-24.56,3.63-36.75.54-3.85,1.72-9.53,7.42-8.72,5.14.72,8.33,5.16,8.87,10.27.81,7.71,1.06,15.49,1.28,23.24.58,20.33.98,40.66,1.53,60.99.3,10.85.81,21.69,1.12,32.53.07,2.36-.36,4.72-.67,8.36Z"/>
      <path class="cls-5" d="m1010.44,300.17c14.39,5.4,21.3,16.6,24.33,29.84,3.13,13.67,4.58,27.72,6.35,41.65.7,5.5-4.19,8.33-8.85,5.17-3.17-2.15-5.91-5.18-8.24-8.25-12.49-16.45-24.53-33.24-37.25-49.51-7.94-10.16-3.8-16.1,7.63-18.86,5.03-1.22,10.67-.1,16.03-.04Z"/>
      <path class="cls-5" d="m780.17,116.45c1.61-4.01,1.48-8.37,8.52-7.36,51.83,7.41,91.08,34.67,122.06,75.15,14.5,18.94,24.3,40.07,29.75,63.8-3.03-.01-5.7-.02-7.79-.03-25.16-73.24-73.95-118.97-152.54-131.55Z"/>
      <path class="cls-5" d="m480.44,826.55c-25.29-16.37-54.8-20.87-83.5-30.52,1.9-1.99,3.16-3.75,4.82-4.99,12.56-9.31,26.72-14.71,42.47-15.71,3.28-.21,6.78.38,9.93,1.39,1.77.57,3.88,2.49,4.39,4.21,4.48,15.17,11.15,29.15,21.91,41.09.64.71.74,1.89,1.09,2.86-.37.56-.74,1.11-1.12,1.67Z"/>
      <path class="cls-5" d="m550.56,507.45c-24.71,22.86-55.11,39.37-77.66,66.09-.11-4.74-.71-9.52-.26-14.2,1.89-19.5,11.52-34.06,30.37-40.68,15.21-5.34,31.11-8.78,46.71-13.06.28.61.56,1.23.84,1.84Z"/>
      <path class="cls-5" d="m684.06,712.74c-12.07,1.95-56.44-12.43-63.09-19.43,5.03-7.3,10.11-14.46,14.93-21.78,2.01-3.05,3.32-6.55,5.24-9.66,3.77-6.11,6.09-6.21,10.05-.36,2.82,4.15,5.22,8.58,7.9,12.82,7.34,11.59,14.72,23.16,22.11,34.71.77,1.21,1.76,2.28,2.86,3.7Z"/>
      <path class="cls-5" d="m249.84,736.2c14.22,4.07,18.93,13.29,14.52,28.39-3.15,10.78-10.28,14.25-22.21,10.8-12.26-3.55-20.75-15.75-17.95-25.78,3.65-13.07,11.84-17.36,25.63-13.41Z"/>
      <path class="cls-5" d="m192.45,603c3.93-3.73,7.28-7.85,11.53-10.66,3.93-2.61,6.75.81,7.08,4.26.86,8.93,1.31,17.93,1.21,26.89-.06,5.37,0,10.94-4.16,15.61-3.45,3.88-6,4.69-9.15.53-2.18-2.89-4.24-6.46-4.68-9.92-1.1-8.52-1.24-17.15-1.83-26.71Z"/>
      <path class="cls-5" d="m148.53,435.26c2.66-7.92,9.36-12.05,16.1-9.93,6.48,2.04,9.95,10.08,7.55,17.46-2.39,7.35-9.36,11.74-15.21,9.59-6.62-2.43-10.64-10.58-8.44-17.13Z"/>
      <path class="cls-5" d="m1048.78,487.79c-3.34,4.14-6.36,8.5-10.04,12.21-2.62,2.64-6.92.49-7.05-3.65-.23-7.15.09-14.31.34-21.47.2-5.52,4.46-7.89,8.79-9.54,3.55-1.36,6.56.57,7,4.26.69,5.78.65,11.64.95,18.19Z"/>
      <path class="cls-5" d="m802.28,150.97c-7.24,2.06-13.62,3.41-19.86-1.75-5.07-4.2-11.23-7.12-17.27-10.83,1.86-2.45,3.49-4.6,5.75-7.59,10.62,6.83,21,13.5,31.38,20.17Z"/>
      <path class="cls-5" d="m944.88,277.22c-.87,10.33-1.7,20.15-2.53,29.96-4.51-4.1-8.64-7.81-7.28-14.11.54-2.49.43-5.13.54-7.71q.3-7.05,9.27-8.15Z"/>
      <path class="cls-5" d="m841.41,189.96c-7.08-3.16-13.13-5.86-19.4-8.66,9.55-5.88,9.51-4.83,19.4,8.66Z"/>
    </g>
    <path class="cls-1" d="m885.94,535.25c-1.32-23.02-3.48-60.68,1.43-105,3.87-34.86,13.47-86.05,39.69-145.45l-88.95-93.92h-503.08l-88.95,93.92c26.22,59.41,35.82,110.6,39.69,145.45,4.92,44.32,2.76,81.97,1.43,105-2.74,47.83-10.11,94.14-11.96,105.48-6.82,41.82-10.74,50.6-8.61,72.24,3.64,36.9,20.23,63.82,27.74,74.65,22.54,32.55,51.02,46.93,88.95,65.5,53.89,26.38,71.67,21.74,118.12,44.31,39.37,19.13,67.64,42.4,85.12,58.76,17.48-16.36,45.75-39.63,85.12-58.76,46.45-22.57,64.23-17.93,118.12-44.31,37.93-18.57,66.4-32.95,88.95-65.5,7.5-10.83,24.1-37.75,27.74-74.65,2.13-21.64-1.79-30.42-8.61-72.24-1.85-11.34-9.21-57.65-11.96-105.48Z"/>
    <g>
      <path class="cls-4" d="m275.01,959.19c5.82,5.12,11.73,10.08,17.73,14.87-.32.4-.64.8-.95,1.2-1.29-1.03-2.58-2.07-3.86-3.12-10.85,13.32-21.69,26.64-32.54,39.96-1.13,1.39-1.57,2.92-1.3,4.6.27,1.67,1.18,3.13,2.72,4.36,2.57,2.04,5.14,2.91,7.68,2.62,2.54-.28,4.78-1.73,6.73-4.29,8.94-11.75,17.89-23.49,26.83-35.24.43-.57.58-1.34.44-2.32-.14-.98-.48-1.68-1.03-2.11-.6-.46-1.19-.92-1.79-1.39.34-.38.68-.76,1.02-1.14,3.14,2.45,6.31,4.86,9.5,7.22-.3.41-.61.82-.91,1.23-.32-.24-.65-.48-.97-.72-.7-.52-1.57-.75-2.61-.68-1.04.07-1.8.42-2.29,1.06-8.92,11.8-17.84,23.61-26.75,35.41-2.48,3.28-5.37,4.9-8.7,4.78-3.32-.12-7.28-1.96-11.79-5.6-9.12-7.4-10.47-14.88-4.32-21.94,9.92-11.49,19.84-22.98,29.76-34.47-1.23-1.07-2.46-2.14-3.69-3.22.36-.36.73-.72,1.09-1.08Z"/>
      <path class="cls-4" d="m329.61,1023.71c-.88,1.44-1.76,2.87-2.64,4.31.22-.01.59-.13,1.11-.36,2.41-.7,4.42-1,6.05-.89,1.62.11,3.32.68,5.1,1.72,2.58,1.51,4.3,3.56,5.18,6.18.88,2.62.67,5.15-.66,7.55-4.93,8.89-9.85,17.77-14.78,26.66,1.48.82,2.96,1.63,4.45,2.44-.26.48-.52.95-.77,1.43-6.48-3.52-12.91-7.18-19.27-10.99.28-.46.55-.93.83-1.39.91.55,1.82,1.09,2.74,1.63,5.54-9.41,11.09-18.81,16.63-28.22,1.22-2.08,1.08-3.56-.43-4.46-1.48-.89-3.31-.6-5.5.85-2.2,1.45-3.47,2.43-3.79,2.96-4.93,8.04-9.86,16.08-14.79,24.13,1,.62,2.01,1.23,3.02,1.84-.28.46-.56.93-.84,1.39-6.38-3.86-12.7-7.87-18.95-12.02.3-.45.6-.9.9-1.35,1.39.93,2.79,1.84,4.19,2.75,6.85-10.54,13.7-21.08,20.55-31.63-1.3-.85-2.59-1.7-3.89-2.56.3-.45.6-.9.9-1.35,4.85,3.22,9.75,6.35,14.69,9.39Z"/>
      <path class="cls-4" d="m382.43,1030.31c4.95,2.37,9.94,4.65,14.96,6.84-7.84,17.98-15.67,35.95-23.51,53.93,1.43.62,2.86,1.24,4.29,1.85-.21.5-.42,1-.64,1.49-7.16-3.04-14.26-6.25-21.3-9.63.23-.49.47-.98.7-1.46,1.51.73,3.03,1.44,4.55,2.15,8.07-17.28,16.14-34.55,24.21-51.83-1.32-.62-2.65-1.24-3.97-1.88.23-.49.47-.98.7-1.46Zm15.43,28.21c3.88,1.61,7.77,3.16,11.69,4.66-.19.51-.39,1.01-.58,1.52-.49-.19-.99-.38-1.48-.57-.89-.35-1.71-.45-2.46-.32-.76.13-1.87.57-3.35,1.31-2.08,1.03-4.18,2.06-6.29,3.06-.03,10.61.17,21.25.6,31.94,1.21.47,2.43.93,3.65,1.38-.19.51-.38,1.01-.57,1.52-6.42-2.4-12.8-4.94-19.14-7.6.21-.5.42-1,.63-1.5,1,.42,2,.83,3,1.25-.12-7.76-.13-15.5,0-23.22,5.27-2.47,10.45-5.03,15.56-7.66.91-.47,1.49-.98,1.72-1.56.29-.71-.1-1.29-1.18-1.73-.8-.33-1.6-.65-2.4-.99.21-.5.41-1,.62-1.5Z"/>
      <path class="cls-4" d="m452.1,1077.31c-.46,1.62-.92,3.24-1.37,4.87.2-.07.52-.29.95-.65,2.09-1.34,3.91-2.19,5.46-2.54,1.56-.35,3.3-.27,5.25.24,2.82.73,4.98,2.22,6.49,4.49,1.51,2.28,1.97,4.75,1.34,7.43-2.34,9.89-4.68,19.77-7.01,29.66,1.61.38,3.22.75,4.83,1.11-.12.53-.24,1.06-.36,1.58-7.03-1.59-14.04-3.32-21.02-5.2.14-.52.28-1.04.42-1.57,1,.27,2,.54,3,.8,2.78-10.56,5.57-21.11,8.35-31.67.61-2.33.09-3.71-1.56-4.16-1.62-.43-3.27.34-4.96,2.35-1.69,2-2.64,3.29-2.8,3.89-2.56,9.08-5.12,18.16-7.68,27.24,1.11.31,2.21.62,3.32.92-.14.52-.29,1.04-.43,1.57-7.01-1.92-13.98-3.99-20.92-6.21.16-.52.33-1.03.49-1.55,1.55.49,3.09.98,4.64,1.46,3.72-12.01,7.44-24.02,11.16-36.03-1.44-.44-2.87-.9-4.31-1.35.16-.52.33-1.03.49-1.55,5.39,1.72,10.8,3.35,16.23,4.87Z"/>
      <path class="cls-4" d="m521.31,1071.12c4.96.67,8.7,3.95,11.38,9.94,2.67,5.98,3.65,13.45,2.77,22.44-.88,8.99-3.39,16.26-7.69,21.75-4.3,5.49-9.24,7.88-14.65,7.16-5.37-.73-9.51-4.27-12.26-10.52-2.75-6.26-3.3-13.61-1.84-22.02,1.67-9.57,4.78-16.87,9.15-21.98,4.38-5.12,8.63-7.38,12.93-6.8.07,0,.13.02.2.03Zm-1.65,50.04c1.57-12.4,3.13-24.8,4.7-37.2.89-7.08-.12-10.8-3.02-11.19-1.81-.25-3.18.5-4.11,2.26-.93,1.76-1.72,4.79-2.35,9.1l-5.29,36.19c-.96,6.51.36,10.04,3.97,10.53,3.2.43,5.23-2.81,6.09-9.68Z"/>
      <path class="cls-4" d="m560.78,1094.99c7.06.34,14.13.53,21.2.57,0,.54,0,1.08,0,1.62-1.33,0-2.66-.02-3.99-.04,2.24,7.6,4.6,15.18,7.06,22.75.07,0,.15,0,.22,0,3.21-8.11,6.26-16.26,9.16-24.43.69-.01,1.38-.03,2.07-.05,3.31,8.11,6.78,16.18,10.4,24.22.07,0,.14,0,.22,0,1.7-6.27,3.32-12.55,4.87-18.84.06-.19.08-.5.05-.93,0-.06,0-.12-.01-.19-.05-.96-.42-1.72-1.1-2.29-.68-.57-1.55-.82-2.63-.77-.56.03-1.11.05-1.67.08-.02-.54-.05-1.08-.07-1.62,4.3-.19,8.6-.44,12.89-.75.04.54.08,1.08.12,1.62-3.1.41-5.06,2.3-5.92,5.72-2.97,11.76-6.19,23.5-9.67,35.21-.78.03-1.57.06-2.35.08-3.8-8.39-7.44-16.82-10.9-25.29-.07,0-.14,0-.21,0-3.25,8.55-6.67,17.07-10.27,25.55-.85,0-1.69-.02-2.54-.03-4.45-13.4-8.55-26.86-12.3-40.36-1.56-.06-3.12-.13-4.68-.2.03-.54.05-1.08.08-1.62Z"/>
      <path class="cls-4" d="m660.02,1089.7c.26,1.67.52,3.33.78,4.99.15-.15.35-.48.59-.98,1.33-2.09,2.62-3.62,3.88-4.58,1.26-.96,2.88-1.62,4.85-1.97,2.86-.51,5.43-.05,7.76,1.39,2.32,1.44,3.77,3.5,4.31,6.2,2,9.96,4,19.92,6,29.88,1.62-.32,3.23-.66,4.85-1,.11.53.22,1.06.33,1.59-7.05,1.48-14.13,2.82-21.22,4.01-.09-.53-.18-1.07-.27-1.6,1.02-.17,2.03-.34,3.05-.52-1.87-10.76-3.75-21.51-5.62-32.27-.42-2.37-1.46-3.42-3.15-3.13-1.65.28-2.81,1.67-3.51,4.19-.7,2.52-1.01,4.09-.92,4.7,1.46,9.32,2.92,18.64,4.39,27.96,1.13-.18,2.26-.36,3.38-.54.09.53.17,1.07.26,1.6-7.14,1.16-14.29,2.18-21.46,3.05-.07-.54-.13-1.07-.2-1.61,1.6-.19,3.19-.39,4.79-.6-1.63-12.46-3.27-24.93-4.9-37.4-1.48.19-2.96.38-4.45.56-.07-.54-.13-1.07-.2-1.61,5.57-.68,11.12-1.45,16.67-2.31Z"/>
      <path class="cls-4" d="m718.4,1113.58c3.14-5.7,6.14-11.42,9.02-17.16,2.63-5.15,4.07-9.51,4.43-13.05.36-3.54-.28-7.85-1.88-12.92-1.7-5.4-3.37-9.01-4.99-10.86-1.62-1.84-3.82-2.34-6.61-1.5-1.87.55-3.61,1.71-5.24,3.48-1.64,1.76-2.31,3.2-2,4.34.26.93,1.11,1.28,2.57,1.07,4.48-.78,7.23.5,8.26,3.94.47,1.57.26,3.12-.64,4.64-.9,1.52-2.21,2.53-3.92,3.01-2.19.62-4.16.43-5.9-.56-1.74-.99-2.9-2.58-3.48-4.76-1.01-3.83-.34-7.38,1.94-10.69,2.29-3.31,5.67-5.61,10.21-6.99,4.74-1.44,9.12-1.24,13.26.59,4.14,1.84,6.99,4.86,8.47,9.16,1.08,3.13,1.18,6.49.25,10.09-.94,3.59-3.48,8.62-7.87,15.03-4.39,6.39-8.08,12.6-10.98,18.66,7.62-2.11,15.21-4.39,22.75-6.85,2.05-.67,3.34-1.59,3.85-2.74.51-1.15.64-2.74.37-4.78.56-.19,1.12-.38,1.67-.57,1.08,4.71,2.14,9.43,3.19,14.16-11.67,3.98-23.46,7.54-35.33,10.67-.47-1.79-.95-3.59-1.42-5.38Z"/>
      <path class="cls-4" d="m790.23,1027.74c.25.51.5,1.03.76,1.54-3.99,3.03-6.79,7.34-8.5,13.03-1.7,5.69-1.28,12.14,1.39,19.38.09.03.18.06.27.08,1.14-3.27,3.21-5.59,6.28-7,3.74-1.73,7.47-1.73,11.29,0,3.81,1.72,6.87,4.8,9.11,9.32,2.52,5.06,2.97,10.18,1.22,15.34-1.74,5.15-5.12,8.9-10.04,11.11-5.3,2.39-10.58,2.18-15.67-.62-5.09-2.8-8.97-7.66-11.74-14.48-3.91-9.64-3.81-18.9-.17-27.82,3.65-8.94,8.81-15.48,15.79-19.87Zm-3.8,40.42c2.56,5.84,5.13,11.68,7.69,17.52.72,1.65,1.75,2.77,3.1,3.39,1.35.62,2.73.61,4.15-.03,1.42-.64,2.31-1.63,2.67-2.97.36-1.34.15-2.86-.64-4.57-2.99-6.48-5.99-12.95-8.98-19.43-.67-1.46-1.54-2.44-2.61-2.96-1.06-.52-2.17-.51-3.34.02-1.49.67-2.43,1.82-2.82,3.45-.39,1.63-.14,3.48.78,5.58Z"/>
      <path class="cls-4" d="m829.48,1006.08c4.41-2.72,9.5-2.63,15.48.22,5.97,2.85,11.53,7.95,16.56,15.46,5.03,7.5,7.66,14.75,7.71,21.8.05,7.05-2.39,12.14-7.18,15.09-4.76,2.94-10.33,2.9-16.52-.14-6.19-3.04-11.31-8.36-15.51-15.79-4.77-8.46-6.95-16.1-6.72-22.88.23-6.79,2.18-11.29,6.01-13.65.06-.04.12-.07.18-.11Zm30.62,39.63c-6.66-10.58-13.32-21.15-19.98-31.73-3.81-6.04-6.99-8.24-9.56-6.65-1.61,1-2.23,2.46-1.85,4.42.38,1.96,1.68,4.81,3.93,8.54,6.29,10.45,12.57,20.89,18.86,31.34,3.39,5.64,6.69,7.5,9.9,5.53,2.84-1.76,2.4-5.58-1.29-11.43Z"/>
      <path class="cls-4" d="m888.21,999.2c1.61-1.25,3.21-2.51,4.8-3.78,3.02-2.41,4.42-4.66,4.22-6.71-.19-2.05-1.82-4.9-4.86-8.58-3.97-4.8-6.82-7.47-8.53-8.02-1.72-.55-3.52-.05-5.44,1.49-1.26,1.01-2.26,2.22-3.02,3.62-.75,1.4-.98,2.3-.68,2.69.3.39,1.1.42,2.4.06,2.82-.77,4.99-.23,6.5,1.65,1.01,1.26,1.35,2.69,1.03,4.32-.33,1.62-1.25,3.03-2.76,4.21-1.57,1.22-3.23,1.77-4.96,1.63-1.73-.13-3.14-.93-4.22-2.36-1.92-2.54-2.24-5.52-1.02-8.94,1.22-3.42,3.74-6.65,7.57-9.76,3.83-3.12,7.82-4.79,12.05-5.02,4.23-.22,7.63,1.06,10.16,3.95,2.35,2.68,3.3,6.02,2.79,10.04-.52,4.02-2.53,8.21-6.07,12.46.04.05.08.1.12.14,5.49-2.93,10.38-4.39,14.73-4.28,4.35.11,7.84,1.57,10.42,4.5,3.19,3.62,4.26,8.01,3.06,13.17-1.2,5.16-4.39,9.9-9.55,14.07-4.01,3.25-7.97,5.05-11.8,5.44-3.83.39-6.67-.68-8.53-3.15-1.21-1.61-1.66-3.36-1.38-5.27.28-1.91,1.25-3.49,2.91-4.78,1.78-1.38,3.56-2.08,5.37-2.1,1.8-.01,3.24.64,4.3,1.96,1.49,1.86,1.4,4.42-.33,7.67-.78,1.48-1.03,2.4-.75,2.76.35.46,1.42.39,3.2-.22,1.78-.61,3.39-1.49,4.84-2.66,2.87-2.3,4.15-4.57,3.87-6.74-.29-2.17-1.99-5.12-5.09-8.85-4.25-5.11-7.67-8.3-10.24-9.58-2.57-1.29-5.23-.79-8.02,1.44-2.02,1.62-4.04,3.22-6.08,4.8-.33-.43-.66-.86-1-1.28Z"/>
    </g>
    <g>
      <polygon class="cls-5" points="377.22 207.29 377.22 817.61 806.9 817.66 818.22 828.71 818.22 639.64 658.24 482.14 658.41 660.33 538.83 660.33 537.25 364.47 377.22 207.29"/>
      <polygon class="cls-5" points="658.26 472.41 818.22 629.79 818.22 588.35 658.24 431.12 658.26 472.41"/>
    </g>
  </g>
</svg>